<svg width="125" height="45" viewBox="0 0 125 45" fill="none" xmlns="http://www.w3.org/2000/svg">
<g clip-path="url(#clip0_530_10427)">
<path d="M48.6954 32.7112C48.6059 32.8518 48.5036 32.9158 48.3629 32.9158H48.3373C48.1967 32.9158 48.1072 32.8391 48.1072 32.6856L47.9665 30.857L46.8412 32.6984C46.7645 32.8135 46.6622 32.903 46.5087 32.903H46.4831C46.3425 32.903 46.2657 32.8263 46.2529 32.6728L46.0483 30.3199C46.0483 30.3199 46.0483 30.2304 46.0483 30.2048C46.0483 30.0769 46.1634 29.9746 46.3169 29.9746C46.4703 29.9746 46.5598 30.0513 46.5726 30.192L46.7133 32.1229L47.877 30.1664C47.9409 30.0385 48.0304 29.9746 48.1583 29.9746H48.1839C48.3246 29.9746 48.4013 30.0513 48.4141 30.1792L48.5419 32.1357L49.744 30.1536C49.8079 30.0513 49.8974 29.9874 50.0125 29.9874C50.1532 29.9874 50.2427 30.0641 50.2427 30.192C50.2427 30.2432 50.2171 30.2943 50.1916 30.3327L48.6954 32.7112Z" fill="black"/>
<path d="M52.008 32.6473C51.9697 32.8008 51.8674 32.8903 51.7395 32.8903C51.5732 32.8903 51.4837 32.7752 51.5349 32.5706L51.7778 31.6755C51.8034 31.6115 51.8162 31.522 51.8162 31.4581C51.8162 31.2407 51.6755 31.1128 51.4454 31.1128C51.164 31.1128 50.9339 31.3302 50.8571 31.6499L50.5886 32.6473C50.5502 32.8008 50.4479 32.8903 50.32 32.8903C50.1538 32.8903 50.0643 32.7752 50.1154 32.5706L50.7676 30.1026C50.8188 29.9491 50.9211 29.8596 51.0489 29.8596C51.2152 29.8596 51.3047 29.9747 51.2535 30.1793L51.0362 30.9849C51.2024 30.8187 51.4198 30.6652 51.7011 30.6652C52.0975 30.6652 52.3533 30.921 52.3533 31.3174C52.3533 31.4325 52.3149 31.5732 52.2893 31.7011L52.0336 32.6601L52.008 32.6473Z" fill="black"/>
<path d="M54.1814 32.3914C54.1814 32.3914 54.2837 32.3402 54.3349 32.3402C54.4372 32.3402 54.5267 32.417 54.5267 32.532C54.5267 32.596 54.4883 32.6599 54.4372 32.6983C54.2454 32.839 53.9896 32.9285 53.7083 32.9285C53.1073 32.9285 52.7236 32.5576 52.7236 31.9822C52.7236 31.3428 53.2479 30.665 54.0024 30.665C54.5651 30.665 54.872 31.0359 54.872 31.509C54.872 31.5858 54.872 31.6753 54.8464 31.752C54.808 31.8927 54.7313 31.9694 54.6034 31.9694H53.2096V32.0078C53.2096 32.3147 53.4142 32.5193 53.7722 32.5193C53.9385 32.5193 54.0919 32.4681 54.207 32.3914H54.1814ZM54.3605 31.6369C54.3605 31.6369 54.386 31.5474 54.386 31.4835C54.386 31.2533 54.2582 31.0742 53.9513 31.0742C53.6188 31.0742 53.3502 31.3172 53.2351 31.6369H54.3605Z" fill="black"/>
<path d="M55.9581 31.1637C56.1372 30.8568 56.3673 30.6777 56.5975 30.6777C56.7382 30.6777 56.8149 30.7672 56.8149 30.9079C56.8149 31.0486 56.751 31.1253 56.5847 31.1765C56.1755 31.266 55.8686 31.5473 55.728 32.0844L55.5745 32.6598C55.5234 32.8133 55.4211 32.9028 55.2932 32.9028C55.1269 32.9028 55.0374 32.7877 55.0886 32.5831L55.5361 30.9463C55.5745 30.7928 55.6768 30.6905 55.8047 30.6905C55.9709 30.6905 56.0477 30.8184 56.0093 30.9846L55.9581 31.1637Z" fill="black"/>
<path d="M58.3118 32.3914C58.3118 32.3914 58.4141 32.3402 58.4653 32.3402C58.5676 32.3402 58.6571 32.417 58.6571 32.532C58.6571 32.596 58.6187 32.6599 58.5676 32.6983C58.3757 32.839 58.12 32.9285 57.8387 32.9285C57.2376 32.9285 56.854 32.5576 56.854 31.9822C56.854 31.3428 57.3783 30.665 58.1328 30.665C58.6954 30.665 59.0023 31.0359 59.0023 31.509C59.0023 31.5858 59.0023 31.6753 58.9768 31.752C58.9384 31.8927 58.8617 31.9694 58.7338 31.9694H57.3399V32.0078C57.3399 32.3147 57.5445 32.5193 57.9026 32.5193C58.0688 32.5193 58.2223 32.4681 58.3374 32.3914H58.3118ZM58.4908 31.6369C58.4908 31.6369 58.5164 31.5474 58.5164 31.4835C58.5164 31.2533 58.3885 31.0742 58.0816 31.0742C57.7491 31.0742 57.4806 31.3172 57.3655 31.6369H58.4908Z" fill="black"/>
<path d="M61.9944 32.3914C61.9944 32.3914 62.0967 32.3402 62.1479 32.3402C62.2502 32.3402 62.3397 32.417 62.3397 32.532C62.3397 32.596 62.3013 32.6599 62.2502 32.6983C62.0584 32.839 61.8026 32.9285 61.5213 32.9285C60.9203 32.9285 60.5366 32.5576 60.5366 31.9822C60.5366 31.3428 61.0609 30.665 61.8154 30.665C62.3781 30.665 62.685 31.0359 62.685 31.509C62.685 31.5858 62.685 31.6753 62.6594 31.752C62.621 31.8927 62.5443 31.9694 62.4164 31.9694H61.0226V32.0078C61.0226 32.3147 61.2272 32.5193 61.5852 32.5193C61.7515 32.5193 61.9049 32.4681 62.02 32.3914H61.9944ZM62.1734 31.6369C62.1734 31.6369 62.199 31.5474 62.199 31.4835C62.199 31.2533 62.0711 31.0742 61.7642 31.0742C61.4318 31.0742 61.1632 31.3172 61.0481 31.6369H62.1734Z" fill="black"/>
<path d="M63.8618 30.8952L63.8363 30.9847C64.0025 30.8185 64.2199 30.665 64.5012 30.665C64.8976 30.665 65.1534 30.9208 65.1534 31.3172C65.1534 31.4323 65.115 31.573 65.0895 31.7008L64.8337 32.6599C64.7953 32.8134 64.693 32.9029 64.5652 32.9029C64.3989 32.9029 64.3094 32.7878 64.3606 32.5832L64.6035 31.6881C64.6291 31.6241 64.6419 31.5346 64.6419 31.4707C64.6419 31.2533 64.5012 31.1254 64.271 31.1254C63.9897 31.1254 63.7595 31.3428 63.6828 31.6625L63.4143 32.6599C63.3759 32.8134 63.2736 32.9029 63.1457 32.9029C62.9795 32.9029 62.89 32.7878 62.9411 32.5832L63.3759 30.9464C63.4143 30.7929 63.5166 30.6906 63.6572 30.6906C63.8107 30.6906 63.8874 30.7929 63.8746 30.908L63.8618 30.8952Z" fill="black"/>
<path d="M66.1509 30.3453C66.1893 30.1918 66.2916 30.1023 66.4195 30.1023C66.5857 30.1023 66.6752 30.2174 66.6241 30.422L66.5474 30.7161H66.8798C66.9949 30.7161 67.0845 30.8056 67.0845 30.9335C67.0845 31.0614 66.9949 31.1509 66.8798 31.1509H66.4323L66.1509 32.1995C66.1509 32.1995 66.1382 32.289 66.1382 32.3274C66.1382 32.4424 66.2149 32.4936 66.3428 32.4936C66.3811 32.4936 66.4067 32.4936 66.4323 32.4936C66.5474 32.4936 66.6241 32.5447 66.6241 32.6726C66.6241 32.7877 66.5729 32.8389 66.4834 32.8772C66.3811 32.9284 66.2788 32.9284 66.1509 32.9284C65.7929 32.9284 65.6011 32.7621 65.6011 32.5064C65.6011 32.4297 65.6011 32.3401 65.6394 32.2506L65.9336 31.1509H65.8824C65.7929 31.1509 65.6906 31.0742 65.6906 30.9335C65.6906 30.8056 65.7801 30.7161 65.8952 30.7161H66.0486L66.1509 30.3453Z" fill="black"/>
<path d="M67.9918 31.1637C68.1709 30.8568 68.401 30.6777 68.6312 30.6777C68.7719 30.6777 68.8486 30.7672 68.8486 30.9079C68.8486 31.0486 68.7847 31.1253 68.6184 31.1765C68.2092 31.266 67.9023 31.5473 67.7617 32.0844L67.6082 32.6598C67.557 32.8133 67.4548 32.9028 67.3269 32.9028C67.1606 32.9028 67.0711 32.7877 67.1223 32.5831L67.5698 30.9463C67.6082 30.7928 67.7105 30.6905 67.8384 30.6905C68.0046 30.6905 68.0813 30.8184 68.043 30.9846L67.9918 31.1637Z" fill="black"/>
<path d="M70.3323 32.3914C70.3323 32.3914 70.4346 32.3402 70.4858 32.3402C70.5881 32.3402 70.6776 32.417 70.6776 32.532C70.6776 32.596 70.6392 32.6599 70.5881 32.6983C70.3963 32.839 70.1405 32.9285 69.8592 32.9285C69.2581 32.9285 68.8745 32.5576 68.8745 31.9822C68.8745 31.3428 69.3988 30.665 70.1533 30.665C70.7159 30.665 71.0228 31.0359 71.0228 31.509C71.0228 31.5858 71.0228 31.6753 70.9973 31.752C70.9589 31.8927 70.8822 31.9694 70.7543 31.9694H69.3604V32.0078C69.3604 32.3147 69.565 32.5193 69.9231 32.5193C70.0893 32.5193 70.2428 32.4681 70.3579 32.3914H70.3323ZM70.5113 31.6369C70.5113 31.6369 70.5369 31.5474 70.5369 31.4835C70.5369 31.2533 70.409 31.0742 70.1021 31.0742C69.7697 31.0742 69.5011 31.3172 69.386 31.6369H70.5113Z" fill="black"/>
<path d="M72.1865 30.908L72.1609 30.9975C72.3527 30.8057 72.5701 30.665 72.8514 30.665C73.3374 30.665 73.6954 31.0231 73.6954 31.5858C73.6954 32.353 73.1072 32.9157 72.4934 32.9157C72.1097 32.9157 71.8923 32.7239 71.7645 32.4809L71.5471 33.2993C71.5087 33.4528 71.4064 33.5423 71.2785 33.5423C71.1123 33.5423 71.0228 33.4272 71.0739 33.2226L71.6877 30.9336C71.7261 30.7801 71.8284 30.6778 71.9691 30.6778C72.1225 30.6778 72.1865 30.7673 72.1865 30.8952V30.908ZM71.8923 31.9438C71.8923 32.2635 72.1225 32.4937 72.4422 32.4937C72.8514 32.4937 73.1839 32.1101 73.1839 31.6241C73.1839 31.2916 72.9793 31.087 72.6724 31.087C72.276 31.087 71.8923 31.4835 71.8923 31.9438Z" fill="black"/>
<path d="M74.859 31.1637C75.0381 30.8568 75.2682 30.6777 75.4984 30.6777C75.6391 30.6777 75.7158 30.7672 75.7158 30.9079C75.7158 31.0486 75.6519 31.1253 75.4856 31.1765C75.0764 31.266 74.7695 31.5473 74.6288 32.0844L74.4754 32.6598C74.4242 32.8133 74.3219 32.9028 74.1941 32.9028C74.0278 32.9028 73.9383 32.7877 73.9895 32.5831L74.437 30.9463C74.4754 30.7928 74.5777 30.6905 74.7056 30.6905C74.8718 30.6905 74.9485 30.8184 74.9102 30.9846L74.859 31.1637Z" fill="black"/>
<path d="M77.1995 32.3914C77.1995 32.3914 77.3018 32.3402 77.353 32.3402C77.4553 32.3402 77.5448 32.417 77.5448 32.532C77.5448 32.596 77.5064 32.6599 77.4553 32.6983C77.2634 32.839 77.0077 32.9285 76.7264 32.9285C76.1253 32.9285 75.7417 32.5576 75.7417 31.9822C75.7417 31.3428 76.266 30.665 77.0205 30.665C77.5831 30.665 77.89 31.0359 77.89 31.509C77.89 31.5858 77.89 31.6753 77.8645 31.752C77.8261 31.8927 77.7494 31.9694 77.6215 31.9694H76.2276V32.0078C76.2276 32.3147 76.4322 32.5193 76.7903 32.5193C76.9565 32.5193 77.11 32.4681 77.2251 32.3914H77.1995ZM77.3785 31.6369C77.3785 31.6369 77.4041 31.5474 77.4041 31.4835C77.4041 31.2533 77.2762 31.0742 76.9693 31.0742C76.6368 31.0742 76.3683 31.3172 76.2532 31.6369H77.3785Z" fill="black"/>
<path d="M79.0664 30.8952L79.0408 30.9847C79.2071 30.8185 79.4245 30.665 79.7058 30.665C80.1022 30.665 80.358 30.9208 80.358 31.3172C80.358 31.4323 80.3196 31.573 80.294 31.7008L80.0383 32.6599C79.9999 32.8134 79.8976 32.9029 79.7697 32.9029C79.6035 32.9029 79.514 32.7878 79.5651 32.5832L79.8081 31.6881C79.8337 31.6241 79.8465 31.5346 79.8465 31.4707C79.8465 31.2533 79.7058 31.1254 79.4756 31.1254C79.1943 31.1254 78.9641 31.3428 78.8874 31.6625L78.6189 32.6599C78.5805 32.8134 78.4782 32.9029 78.3503 32.9029C78.1841 32.9029 78.0946 32.7878 78.1457 32.5832L78.5805 30.9464C78.6189 30.7929 78.7212 30.6906 78.8618 30.6906C79.0153 30.6906 79.092 30.7929 79.0792 30.908L79.0664 30.8952Z" fill="black"/>
<path d="M82.199 32.3914C82.199 32.3914 82.3013 32.3402 82.3525 32.3402C82.4548 32.3402 82.5443 32.417 82.5443 32.532C82.5443 32.596 82.5059 32.6599 82.4548 32.6983C82.263 32.839 82.0072 32.9285 81.7259 32.9285C81.1248 32.9285 80.7412 32.5576 80.7412 31.9822C80.7412 31.3428 81.2655 30.665 82.02 30.665C82.5826 30.665 82.8895 31.0359 82.8895 31.509C82.8895 31.5858 82.8896 31.6753 82.864 31.752C82.8256 31.8927 82.7489 31.9694 82.621 31.9694H81.2271V32.0078C81.2271 32.3147 81.4317 32.5193 81.7898 32.5193C81.956 32.5193 82.1095 32.4681 82.2246 32.3914H82.199ZM82.378 31.6369C82.378 31.6369 82.4036 31.5474 82.4036 31.4835C82.4036 31.2533 82.2757 31.0742 81.9688 31.0742C81.6364 31.0742 81.3678 31.3172 81.2527 31.6369H82.378Z" fill="black"/>
<path d="M84.501 32.6855L84.5266 32.596C84.3604 32.7622 84.143 32.9157 83.8744 32.9157C83.478 32.9157 83.2095 32.6599 83.2095 32.2635C83.2095 32.1484 83.2478 32.0078 83.2734 31.8799L83.5292 30.9208C83.5675 30.7673 83.6698 30.665 83.7977 30.665C83.9639 30.665 84.0535 30.7929 84.0023 30.9847L83.7593 31.8927C83.7466 31.9566 83.7338 32.0461 83.7338 32.1101C83.7338 32.3274 83.8744 32.4553 84.1046 32.4553C84.3859 32.4553 84.6161 32.2379 84.6929 31.9182L84.9614 30.9208C84.9998 30.7673 85.1021 30.665 85.2299 30.665C85.3962 30.665 85.4857 30.7929 85.4345 30.9847L84.9998 32.6216C84.9486 32.775 84.8463 32.8645 84.7184 32.8645C84.5905 32.8645 84.4882 32.775 84.501 32.6599V32.6855Z" fill="black"/>
<path d="M86.5216 31.1637C86.7007 30.8568 86.9308 30.6777 87.161 30.6777C87.3017 30.6777 87.3784 30.7672 87.3784 30.9079C87.3784 31.0486 87.3145 31.1253 87.1482 31.1765C86.739 31.266 86.4321 31.5473 86.2914 32.0844L86.138 32.6598C86.0868 32.8133 85.9845 32.9028 85.8567 32.9028C85.6904 32.9028 85.6009 32.7877 85.6521 32.5831L86.0996 30.9463C86.138 30.7928 86.2403 30.6905 86.3682 30.6905C86.5344 30.6905 86.6111 30.8184 86.5728 30.9846L86.5216 31.1637Z" fill="black"/>
<path d="M88.5038 32.2762C88.5038 32.1739 88.4015 32.0972 88.1841 32.0077C87.826 31.8542 87.5575 31.7263 87.5575 31.3938C87.5575 30.9846 87.8899 30.6777 88.4014 30.6777C88.67 30.6777 88.9385 30.78 89.092 30.8823C89.1559 30.9207 89.2071 30.9846 89.2071 31.0742C89.2071 31.1892 89.1176 31.2915 89.0025 31.2915C88.9513 31.2915 88.913 31.266 88.8618 31.2404C88.7084 31.1253 88.5421 31.0742 88.3631 31.0742C88.1457 31.0742 88.0306 31.1765 88.0306 31.3171C88.0306 31.4322 88.1329 31.4961 88.3759 31.5984C88.7084 31.7391 88.9641 31.8926 88.9641 32.1995C88.9641 32.647 88.5933 32.9284 88.0945 32.9284C87.7876 32.9284 87.4935 32.8133 87.2633 32.647C87.1994 32.5959 87.1738 32.5447 87.1738 32.468C87.1738 32.3529 87.2633 32.2506 87.3784 32.2506C87.4296 32.2506 87.4807 32.2762 87.5191 32.3018C87.7237 32.468 87.9283 32.532 88.1457 32.532C88.3375 32.532 88.491 32.4297 88.491 32.2762H88.5038Z" fill="black"/>
<path d="M92.6602 30.9335C92.6986 30.7928 92.7881 30.6777 92.9288 30.6777C93.095 30.6777 93.1845 30.8056 93.1334 30.9974L92.7369 32.4808C92.6346 32.8772 92.5323 33.0563 92.3661 33.2225C92.1615 33.4271 91.8929 33.5294 91.5093 33.5294C91.164 33.5294 90.8444 33.4527 90.563 33.2992C90.4735 33.2481 90.4224 33.1969 90.4224 33.1074C90.4224 32.9923 90.5119 32.89 90.627 32.89C90.6781 32.89 90.7293 32.89 90.7804 32.9284C90.9978 33.069 91.228 33.133 91.471 33.133C91.7139 33.133 91.8802 33.069 91.9953 32.9412C92.0976 32.8389 92.1615 32.6854 92.2254 32.5064L92.2638 32.3785C92.0336 32.5831 91.829 32.711 91.5221 32.711C91.1001 32.711 90.6909 32.4297 90.6909 31.9309C90.6909 31.2148 91.2791 30.6777 91.893 30.6777C92.3022 30.6777 92.4812 30.8951 92.6091 31.1125L92.6602 30.9463V30.9335ZM92.4812 31.5729C92.4812 31.3043 92.2766 31.0869 91.9569 31.0869C91.5733 31.0869 91.228 31.4194 91.228 31.8286C91.228 32.1355 91.4454 32.289 91.7267 32.289C92.1231 32.289 92.4812 31.9437 92.4812 31.5601V31.5729Z" fill="black"/>
<path d="M93.4263 31.931C93.4263 31.2661 93.9889 30.665 94.6923 30.665C95.3061 30.665 95.7025 31.087 95.7025 31.6625C95.7025 32.3274 95.127 32.9285 94.4365 32.9285C93.8227 32.9285 93.4263 32.5065 93.4263 31.9438V31.931ZM95.2166 31.6625C95.2166 31.2916 94.9864 31.087 94.6667 31.087C94.2447 31.087 93.925 31.5218 93.925 31.9054C93.925 32.2891 94.1552 32.4809 94.4749 32.4809C94.8969 32.4809 95.2166 32.0461 95.2166 31.6625Z" fill="black"/>
<path d="M97.9283 30.3453C97.9667 30.1918 98.069 30.1023 98.1968 30.1023C98.3631 30.1023 98.4526 30.2174 98.4014 30.422L98.3247 30.7161H98.6572C98.7723 30.7161 98.8618 30.8056 98.8618 30.9335C98.8618 31.0614 98.7723 31.1509 98.6572 31.1509H98.2096L97.9283 32.1995C97.9283 32.1995 97.9155 32.289 97.9155 32.3274C97.9155 32.4424 97.9922 32.4936 98.1201 32.4936C98.1585 32.4936 98.184 32.4936 98.2096 32.4936C98.3247 32.4936 98.4014 32.5447 98.4014 32.6726C98.4014 32.7877 98.3503 32.8389 98.2608 32.8772C98.1585 32.9284 98.0562 32.9284 97.9283 32.9284C97.5702 32.9284 97.3784 32.7621 97.3784 32.5064C97.3784 32.4297 97.3784 32.3401 97.4168 32.2506L97.7109 31.1509H97.6597C97.5702 31.1509 97.4679 31.0742 97.4679 30.9335C97.4679 30.8056 97.5574 30.7161 97.6725 30.7161H97.826L97.9283 30.3453Z" fill="black"/>
<path d="M98.938 31.931C98.938 31.2661 99.5006 30.665 100.204 30.665C100.818 30.665 101.214 31.087 101.214 31.6625C101.214 32.3274 100.639 32.9285 99.9482 32.9285C99.3344 32.9285 98.938 32.5065 98.938 31.9438V31.931ZM100.728 31.6625C100.728 31.2916 100.498 31.087 100.178 31.087C99.7564 31.087 99.4367 31.5218 99.4367 31.9054C99.4367 32.2891 99.6669 32.4809 99.9866 32.4809C100.409 32.4809 100.728 32.0461 100.728 31.6625Z" fill="black"/>
<path d="M104.795 30.9335C104.833 30.7928 104.923 30.6777 105.064 30.6777C105.23 30.6777 105.319 30.8056 105.268 30.9974L104.872 32.4808C104.769 32.8772 104.667 33.0563 104.501 33.2225C104.296 33.4271 104.028 33.5294 103.644 33.5294C103.299 33.5294 102.979 33.4527 102.698 33.2992C102.608 33.2481 102.557 33.1969 102.557 33.1074C102.557 32.9923 102.647 32.89 102.762 32.89C102.813 32.89 102.864 32.89 102.915 32.9284C103.133 33.069 103.363 33.133 103.606 33.133C103.849 33.133 104.015 33.069 104.13 32.9412C104.232 32.8389 104.296 32.6854 104.36 32.5064L104.399 32.3785C104.168 32.5831 103.964 32.711 103.657 32.711C103.235 32.711 102.826 32.4297 102.826 31.9309C102.826 31.2148 103.414 30.6777 104.028 30.6777C104.437 30.6777 104.616 30.8951 104.744 31.1125L104.795 30.9463V30.9335ZM104.616 31.5729C104.616 31.3043 104.411 31.0869 104.092 31.0869C103.708 31.0869 103.363 31.4194 103.363 31.8286C103.363 32.1355 103.58 32.289 103.861 32.289C104.258 32.289 104.616 31.9437 104.616 31.5601V31.5729Z" fill="black"/>
<path d="M106.342 31.1637C106.521 30.8568 106.752 30.6777 106.982 30.6777C107.122 30.6777 107.199 30.7672 107.199 30.9079C107.199 31.0486 107.135 31.1253 106.969 31.1765C106.56 31.266 106.253 31.5473 106.112 32.0844L105.959 32.6598C105.908 32.8133 105.805 32.9028 105.677 32.9028C105.511 32.9028 105.422 32.7877 105.473 32.5831L105.92 30.9463C105.959 30.7928 106.061 30.6905 106.189 30.6905C106.355 30.6905 106.432 30.8184 106.394 30.9846L106.342 31.1637Z" fill="black"/>
<path d="M107.225 31.931C107.225 31.2661 107.787 30.665 108.491 30.665C109.104 30.665 109.501 31.087 109.501 31.6625C109.501 32.3274 108.925 32.9285 108.235 32.9285C107.621 32.9285 107.225 32.5065 107.225 31.9438V31.931ZM109.015 31.6625C109.015 31.2916 108.785 31.087 108.465 31.087C108.043 31.087 107.723 31.5218 107.723 31.9054C107.723 32.2891 107.954 32.4809 108.273 32.4809C108.695 32.4809 109.015 32.0461 109.015 31.6625Z" fill="black"/>
<path d="M109.923 31.0486C109.923 31.0486 109.923 30.9591 109.923 30.9207C109.923 30.7928 110.051 30.6777 110.179 30.6777C110.32 30.6777 110.422 30.7545 110.435 30.8951L110.499 32.1739L111.266 30.8695C111.33 30.7417 111.42 30.6777 111.56 30.6777H111.586C111.714 30.6777 111.803 30.7545 111.803 30.8823L111.88 32.1867L112.673 30.844C112.724 30.7545 112.801 30.6905 112.916 30.6905C113.044 30.6905 113.12 30.7672 113.12 30.8823C113.12 30.9335 113.095 30.9846 113.069 31.023L112.033 32.711C111.957 32.8389 111.854 32.9156 111.714 32.9156H111.701C111.56 32.9156 111.483 32.8389 111.471 32.6854L111.394 31.4194L110.614 32.711C110.537 32.8389 110.435 32.9156 110.294 32.9156H110.281C110.141 32.9156 110.064 32.8389 110.051 32.6854L109.936 31.0486H109.923Z" fill="black"/>
<path d="M122.583 17.8773C122.583 17.2123 123.12 16.6497 123.797 16.6497C124.475 16.6497 125.012 17.1995 125.012 17.8645C125.012 18.5295 124.475 19.0921 123.797 19.0921C123.12 19.0921 122.583 18.5422 122.583 17.8773ZM124.872 17.8773C124.872 17.2763 124.411 16.7903 123.797 16.7903C123.184 16.7903 122.723 17.289 122.723 17.8773C122.723 18.4783 123.184 18.9642 123.797 18.9642C124.411 18.9642 124.872 18.4655 124.872 17.8773ZM123.299 17.3786C123.299 17.289 123.363 17.2123 123.452 17.2123H123.887C124.181 17.2123 124.398 17.353 124.398 17.6343C124.398 17.8261 124.296 17.954 124.143 18.0179L124.334 18.2481C124.334 18.2481 124.373 18.3121 124.373 18.3632C124.373 18.4527 124.309 18.5039 124.219 18.5039C124.168 18.5039 124.13 18.4783 124.091 18.4399L123.797 18.0819H123.593V18.3504C123.593 18.4399 123.529 18.5039 123.439 18.5039C123.35 18.5039 123.286 18.4399 123.286 18.3504V17.3786H123.299ZM123.874 17.8261C124.015 17.8261 124.091 17.7622 124.091 17.6471C124.091 17.532 124.002 17.4681 123.874 17.4681H123.606V17.8133H123.874V17.8261Z" fill="#252524"/>
<path d="M34.5523 24.0283H31.317V22.481H34.0791C34.4372 22.481 34.7313 22.1869 34.7313 21.8416C34.7313 21.4963 34.4372 21.1766 34.0791 21.1766H31.317V19.6933H34.5011C34.8592 19.6933 35.1533 19.3991 35.1533 19.0411C35.1533 18.683 34.8592 18.3889 34.5011 18.3889H30.6009C30.1917 18.3889 29.8848 18.7086 29.8848 19.105V24.6293C29.8848 25.0385 30.2045 25.3454 30.6009 25.3454H34.5523C34.9103 25.3454 35.2045 25.0513 35.2045 24.6933C35.2045 24.3352 34.9103 24.0411 34.5523 24.0411V24.0283Z" fill="black"/>
<path d="M41.6883 18.325C41.3047 18.325 40.985 18.6447 40.985 19.0284V22.7752L37.852 18.7215C37.6986 18.5296 37.5067 18.325 37.0208 18.325C36.6244 18.325 36.3047 18.6447 36.3047 19.0412V24.6678C36.3047 25.0514 36.6244 25.3711 37.0208 25.3711C37.4172 25.3711 37.7241 25.0514 37.7241 24.6678V20.7931L40.9466 24.9619C41.1001 25.1665 41.3047 25.3711 41.7139 25.3711C42.1231 25.3711 42.4172 25.0642 42.4172 24.655V19.0156C42.4172 18.6319 42.0975 18.3123 41.7011 18.3123L41.6883 18.325Z" fill="black"/>
<path d="M48.4658 18.376H44.0156C43.6448 18.376 43.3379 18.6829 43.3379 19.0537C43.3379 19.4246 43.6448 19.7315 44.0156 19.7315H45.5118V24.6803C45.5118 25.0767 45.8315 25.3964 46.2279 25.3964C46.6243 25.3964 46.944 25.0767 46.944 24.6803V19.7315H48.453C48.8238 19.7315 49.1179 19.4246 49.1179 19.0537C49.1179 18.6829 48.8238 18.376 48.453 18.376H48.4658Z" fill="black"/>
<path d="M54.7315 24.0283H51.4962V22.481H54.2583C54.6164 22.481 54.9105 22.1869 54.9105 21.8416C54.9105 21.4963 54.6164 21.1766 54.2583 21.1766H51.4962V19.6933H54.6803C55.0384 19.6933 55.3325 19.3991 55.3325 19.0411C55.3325 18.683 55.0384 18.3889 54.6803 18.3889H50.7801C50.3709 18.3889 50.064 18.7086 50.064 19.105V24.6293C50.064 25.0385 50.3837 25.3454 50.7801 25.3454H54.7315C55.0895 25.3454 55.3837 25.0513 55.3837 24.6933C55.3837 24.3352 55.0895 24.0411 54.7315 24.0411V24.0283Z" fill="black"/>
<path d="M60.78 22.6982C61.7135 22.353 62.2122 21.6241 62.2122 20.6138C62.2122 20 62.0076 19.4757 61.624 19.0793C61.1508 18.6189 60.4475 18.376 59.6035 18.376H57.2122C56.803 18.376 56.4961 18.6957 56.4961 19.0921V24.6675C56.4961 25.064 56.8158 25.3836 57.2122 25.3836C57.6086 25.3836 57.9283 25.0767 57.9283 24.6675V22.9923L59.1815 22.9412L60.8056 25.0128C60.9846 25.2558 61.202 25.3709 61.4833 25.3709C61.8158 25.3709 62.1738 25.1151 62.1738 24.6931C62.1738 24.4629 62.0715 24.2967 61.9565 24.156L60.78 22.6854V22.6982ZM57.9155 19.6931H59.5012C59.9744 19.6931 60.7672 19.821 60.7672 20.6906C60.7672 21.3044 60.2813 21.688 59.514 21.688H57.9155V19.6931Z" fill="black"/>
<path d="M66.1772 18.3763H64.1312C63.7219 18.3763 63.415 18.696 63.415 19.0924V24.6679C63.415 25.0643 63.7347 25.384 64.1312 25.384C64.5276 25.384 64.8473 25.0771 64.8473 24.6679V23.1717H66.0493C67.7245 23.1717 68.8626 22.1998 68.8626 20.7293C68.8626 19.2587 67.814 18.3635 66.19 18.3635L66.1772 18.3763ZM64.8345 19.7062H66.0749C66.5736 19.7062 67.392 19.8469 67.392 20.7932C67.392 21.4454 66.8677 21.8674 66.0749 21.8674H64.8345V19.7062Z" fill="black"/>
<path d="M74.0925 22.6982C75.026 22.353 75.5247 21.6241 75.5247 20.6138C75.5247 20 75.3201 19.4757 74.9365 19.0793C74.4633 18.6189 73.76 18.376 72.916 18.376H70.5247C70.1155 18.376 69.8086 18.6957 69.8086 19.0921V24.6675C69.8086 25.064 70.1283 25.3836 70.5247 25.3836C70.9211 25.3836 71.2408 25.0767 71.2408 24.6675V22.9923L72.494 22.9412L74.1181 25.0128C74.2971 25.2558 74.5145 25.3709 74.7958 25.3709C75.1283 25.3709 75.4863 25.1151 75.4863 24.6931C75.4863 24.4629 75.384 24.2967 75.269 24.156L74.0925 22.6854V22.6982ZM71.228 19.6931H72.8137C73.2869 19.6931 74.0797 19.821 74.0797 20.6906C74.0797 21.3044 73.5938 21.688 72.8265 21.688H71.228V19.6931Z" fill="black"/>
<path d="M77.5066 18.3252C77.0974 18.3252 76.7905 18.6321 76.7905 19.0413V24.6807C76.7905 25.0771 77.1102 25.3968 77.5066 25.3968C77.9031 25.3968 78.2228 25.0899 78.2228 24.6807V19.0413C78.2228 18.6449 77.9158 18.3252 77.5066 18.3252Z" fill="black"/>
<path d="M82.5069 21.1895C81.1514 20.8698 80.9979 20.6524 80.9979 20.2432C80.9979 19.834 81.3816 19.5783 81.957 19.5783C82.4557 19.5783 82.9161 19.7317 83.4276 20.0642C83.5427 20.1409 83.6706 20.1665 83.7985 20.1665C84.1693 20.1665 84.4762 19.8596 84.4762 19.4888C84.4762 19.1946 84.31 19.0028 84.1565 18.9133C83.5043 18.4785 82.7882 18.2739 81.957 18.2739C80.5376 18.2739 79.5401 19.1307 79.5401 20.3711C79.5401 21.6755 80.3969 22.1358 81.8675 22.4939C83.1846 22.8008 83.2869 23.0437 83.2869 23.4146C83.2869 23.8494 82.865 24.1307 82.2256 24.1307C81.5862 24.1307 80.9979 23.9133 80.4225 23.4657C80.3074 23.3762 80.1667 23.3379 80.0005 23.3379C79.6297 23.3379 79.3228 23.6448 79.3228 24.0156C79.3228 24.233 79.4251 24.4376 79.6041 24.5655C80.3713 25.1281 81.2665 25.4351 82.2 25.4351C83.7345 25.4351 84.7192 24.6038 84.7192 23.2867C84.7192 21.9696 83.645 21.4836 82.4813 21.2023L82.5069 21.1895Z" fill="black"/>
<path d="M90.5503 24.0283H87.315V22.481H90.0772C90.4352 22.481 90.7294 22.1869 90.7294 21.8416C90.7294 21.4963 90.4352 21.1766 90.0772 21.1766H87.315V19.6933H90.4992C90.8572 19.6933 91.1513 19.3991 91.1513 19.0411C91.1513 18.683 90.8572 18.3889 90.4992 18.3889H86.5989C86.1897 18.3889 85.8828 18.7086 85.8828 19.105V24.6293C85.8828 25.0385 86.2025 25.3454 86.5989 25.3454H90.5503C90.9084 25.3454 91.2025 25.0513 91.2025 24.6933C91.2025 24.3352 90.9084 24.0411 90.5503 24.0411V24.0283Z" fill="black"/>
<path d="M100.256 18.3252C99.8591 18.3252 99.5394 18.6321 99.5394 19.0413V21.1641H96.5982V19.0413C96.5982 18.6449 96.2913 18.3252 95.8821 18.3252C95.4729 18.3252 95.166 18.6321 95.166 19.0413V24.6807C95.166 25.0771 95.4857 25.3968 95.8821 25.3968C96.2786 25.3968 96.5982 25.0899 96.5982 24.6807V22.5196H99.5394V24.6807C99.5394 25.0771 99.8463 25.3968 100.256 25.3968C100.665 25.3968 100.972 25.0899 100.972 24.6807V19.0413C100.972 18.6449 100.652 18.3252 100.256 18.3252Z" fill="black"/>
<path d="M107.622 18.3252C107.212 18.3252 106.906 18.6321 106.906 19.0413V22.3661C106.906 23.4786 106.356 24.0925 105.345 24.0925C104.335 24.0925 103.773 23.4659 103.773 22.315V19.0413C103.773 18.6449 103.466 18.3252 103.056 18.3252C102.647 18.3252 102.34 18.6321 102.34 19.0413V22.3661C102.34 24.3226 103.427 25.448 105.32 25.448C107.212 25.448 108.338 24.3099 108.338 22.315V19.0541C108.338 18.6577 108.018 18.338 107.622 18.338V18.3252Z" fill="black"/>
<path d="M114.361 21.688C114.886 21.3427 115.154 20.844 115.154 20.2046C115.154 19.7315 114.988 19.3223 114.668 19.0026C114.259 18.5934 113.62 18.376 112.827 18.376H110.41C110.001 18.376 109.694 18.6957 109.694 19.0921V24.6164C109.694 25.0256 110.014 25.3325 110.41 25.3325H112.916C114.553 25.3325 115.525 24.5908 115.525 23.3504C115.525 22.5704 115.154 22.0333 114.361 21.7008V21.688ZM112.584 21.1893H111.1V19.6675H112.673C113.338 19.6675 113.722 19.9361 113.722 20.4092C113.722 21.087 113.006 21.1893 112.584 21.1893ZM111.1 22.4425H112.84C113.415 22.4425 114.093 22.5831 114.093 23.2353C114.093 23.9258 113.364 24.0282 112.929 24.0282H111.1V22.4425Z" fill="black"/>
<path d="M119.361 21.1895C118.005 20.8698 117.852 20.6524 117.852 20.2432C117.852 19.834 118.236 19.5783 118.811 19.5783C119.31 19.5783 119.77 19.7317 120.282 20.0642C120.397 20.1409 120.525 20.1665 120.652 20.1665C121.023 20.1665 121.33 19.8596 121.33 19.4888C121.33 19.1946 121.164 19.0028 121.011 18.9133C120.358 18.4785 119.642 18.2739 118.811 18.2739C117.392 18.2739 116.394 19.1307 116.394 20.3711C116.394 21.6755 117.251 22.1358 118.722 22.4939C120.039 22.8008 120.141 23.0437 120.141 23.4146C120.141 23.8494 119.719 24.1307 119.08 24.1307C118.44 24.1307 117.852 23.9133 117.277 23.4657C117.161 23.3762 117.021 23.3379 116.855 23.3379C116.484 23.3379 116.177 23.6448 116.177 24.0156C116.177 24.233 116.279 24.4376 116.458 24.5655C117.225 25.1281 118.12 25.4351 119.054 25.4351C120.589 25.4351 121.573 24.6038 121.573 23.2867C121.573 21.9696 120.499 21.4836 119.335 21.2023L119.361 21.1895Z" fill="black"/>
<path d="M24.1562 0H20.4478V14.7442H24.1562V0Z" fill="#F0E955"/>
<path d="M14.7442 20.4604H0V24.1689H14.7442V20.4604Z" fill="#252524"/>
<path d="M15.6465 26.3467L5.2207 36.7725L7.84297 39.3947L18.2687 28.969L15.6465 26.3467Z" fill="#7FC262"/>
<path d="M7.83222 5.21953L5.20996 7.8418L15.6357 18.2676L18.258 15.6453L7.83222 5.21953Z" fill="#E8332C"/>
<path d="M36.7715 5.21804L26.3457 15.6438L28.968 18.2661L39.3937 7.84031L36.7715 5.21804Z" fill="#7FC262"/>
<path d="M24.1562 29.8723H20.4478V44.6166H24.1562V29.8723Z" fill="#F0E955"/>
<path d="M28.9616 26.345L26.3394 28.9673L36.7651 39.393L39.3874 36.7708L28.9616 26.345Z" fill="#E8332C"/>
<path d="M43.1079 31.381H44.9749C45.1028 31.381 45.2434 31.3554 45.2434 31.5473C45.2434 31.7007 45.1028 31.6879 44.9877 31.6879H41.1002C40.9851 31.6879 40.8572 31.6879 40.87 31.5217C40.87 31.3682 41.0107 31.381 41.113 31.381H43.0951H43.1079Z" fill="#030303"/>
</g>
<defs>
<clipPath id="clip0_530_10427">
<rect width="125" height="44.6164" fill="white"/>
</clipPath>
</defs>
</svg>
